HIERARCHY
ROOT Hips
{
	OFFSET 0.00000 0.00000 0.00000
	CHANNELS 6 Xposition Yposition Zposition Zrotation Yrotation Xrotation 
	JOINT LHipJoint
	{
		OFFSET 0 0 0
		CHANNELS 3 Zrotation Yrotation Xrotation
		JOINT LeftHip
		{
			OFFSET 1.66553 -1.82942 0.76350
			CHANNELS 3 Zrotation Yrotation Xrotation
			JOINT LeftKnee
			{
				OFFSET 2.41740 -6.64177 0.00000
				CHANNELS 3 Zrotation Yrotation Xrotation
				JOINT LeftAnkle
				{
					OFFSET 2.71614 -7.46254 0.00000
					CHANNELS 3 Zrotation Yrotation Xrotation
					JOINT LeftToe
					{
						OFFSET 0.08005 -0.21993 1.82495
						CHANNELS 3 Zrotation Yrotation Xrotation
						End Site
						{
							OFFSET 0.00000 -0.00000 0.93441
						}
					}
				}
			}
		}
	}
	JOINT RHipJoint
	{
		OFFSET 0 0 0
		CHANNELS 3 Zrotation Yrotation Xrotation
		JOINT RightHip
		{
			OFFSET -1.63725 -1.82942 0.76350
			CHANNELS 3 Zrotation Yrotation Xrotation
			JOINT RightKnee
			{
				OFFSET -2.40538 -6.60872 0.00000
				CHANNELS 3 Zrotation Yrotation Xrotation
				JOINT RightAnkle
				{
					OFFSET -2.73312 -7.50919 0.00000
					CHANNELS 3 Zrotation Yrotation Xrotation
					JOINT RightToe
					{
						OFFSET -0.15567 -0.42769 1.93504
						CHANNELS 3 Zrotation Yrotation Xrotation
						End Site
						{
							OFFSET -0.00000 -0.00000 1.00100
						}
					}
				}
			}
		}
	}
	JOINT lowerback
	{
		OFFSET 0 0 0
		CHANNELS 3 Zrotation Yrotation Xrotation
		JOINT Chest
		{
			OFFSET 0.00326 2.30118 -0.13017
			CHANNELS 3 Zrotation Yrotation Xrotation
			JOINT Chest2
			{
				OFFSET 0.02887 2.30677 0.00834
				CHANNELS 3 Zrotation Yrotation Xrotation
				JOINT lowerneck
				{
					OFFSET 0 0 0
					CHANNELS 3 Zrotation Yrotation Xrotation
					JOINT Neck
					{
						OFFSET 0.12946 1.68326 0.00713
						CHANNELS 3 Zrotation Yrotation Xrotation
						JOINT Head
						{
							OFFSET -0.24364 1.67243 -0.16079
							CHANNELS 3 Zrotation Yrotation Xrotation
							End Site
							{
								OFFSET -0.09229 1.70819 -0.06383
							}
						}
					}
				}
				JOINT LeftCollar
				{
					OFFSET 0 0 0
					CHANNELS 3 Zrotation Yrotation Xrotation
					JOINT LeftShoulder
					{
						OFFSET 3.28104 0.69567 -0.00556
CHANNELS 3 Zrotation Xrotation Yrotation
						JOINT LeftElbow
						{
OFFSET 0 -5.707060 -0.000000
CHANNELS 3 Zrotation Xrotation Yrotation
							JOINT LeftWrist
							{
OFFSET 0 -3.332430 0.000000
CHANNELS 3 Zrotation Xrotation Yrotation
								JOINT lhand
								{
									OFFSET 0 0 0
CHANNELS 3 Zrotation Xrotation Yrotation
									JOINT LFingers
									{
OFFSET 0 -0.792690 0.000000
CHANNELS 3 Zrotation Xrotation Yrotation
										End Site
										{
OFFSET 0 -0.639090 0.000000
										}
									}
								}
								JOINT LThumb
								{
OFFSET 0 0.000000 0.000000
CHANNELS 3 Zrotation Xrotation Yrotation
									End Site
									{
OFFSET 0 -0.648840 0.648840
									}
								}
							}
						}
					}
				}
				JOINT RightCollar
				{
					OFFSET 0 0 0
					CHANNELS 3 Zrotation Yrotation Xrotation
					JOINT RightShoulder
					{
						OFFSET -3.40955 0.64424 0.14010
CHANNELS 3 Zrotation Xrotation Yrotation
						JOINT RightElbow
						{
OFFSET 0 -5.881760 -0.000000
CHANNELS 3 Zrotation Xrotation Yrotation
							JOINT RightWrist
							{
OFFSET 0 -3.281560 0.000000
CHANNELS 3 Zrotation Xrotation Yrotation
								JOINT rhand
								{
									OFFSET 0 0 0
CHANNELS 3 Zrotation Xrotation Yrotation
									JOINT RFingers
									{
OFFSET 0 -0.863130 0.000000
CHANNELS 3 Zrotation Xrotation Yrotation
										End Site
										{
OFFSET 0 -0.695870 0.000000
										}
									}
								}
								JOINT RThumb
								{
OFFSET 0 0.000000 0.000000
CHANNELS 3 Zrotation Xrotation Yrotation
									End Site
									{
OFFSET 0 -0.706500 0.706500
									}
								}
							}
						}
					}
				}
			}
		}
	}
}
MOTION
Frames: 4
Frame Time: 0.008333333333333333
-6.803995 17.294202 -29.208553 -177.976467 -4.001751 180.977638 0.000000 0.000000 0.000000 -7.802774 -6.329368 -5.823839 2.190163 9.250787 26.583446 1.253771 -0.582633 -20.998850 2.587780 -9.995337 -28.961953 0.000000 0.000000 0.000000 10.336179 -1.229480 -5.973506 -2.348858 -9.557081 27.554510 -1.355016 2.934210 -21.239828 -1.190815 -6.922884 19.487858 -1.491497 -0.352201 5.292256 0.584205 -0.853346 -6.445472 1.595373 -0.398664 -9.782693 20.247638 20.134099 14.593465 -25.142244 28.944627 -4.791598 -9.599641 15.122762 3.053741 0.000000 0.000000 0.000000 23.956131 17.690599 -34.128914 27.400703 -38.558494 9.747941 26.957256 -46.114001 -14.769956 0.000000 0.000000 0.000000 -7.125000 0.000000 0.000000 -0.558694 46.458603 0.013817 0.000000 0.000000 0.000000 -21.705591 20.873555 40.055735 -20.025589 -30.673021 -5.544437 -33.289222 -16.132604 -32.169159 0.000000 0.000000 0.000000 7.125000 0.000000 0.000000 -0.770135 -6.977130 -0.858189
-6.278087 17.000778 -28.543358 -176.480760 -15.578635 181.123486 0.000000 0.000000 0.000000 -2.325694 -9.374155 -19.988354 4.190909 12.409083 37.196648 0.682471 -10.943978 -15.545957 3.823821 -11.920907 -35.454411 0.000000 0.000000 0.000000 12.291966 3.148208 -12.991702 -5.435358 -13.854453 42.664339 -1.626277 3.559765 -23.231394 -0.667639 -5.200618 14.487076 -3.717880 -0.707322 13.383666 -0.617214 -1.689773 -3.194139 1.813056 -0.590744 -10.938428 18.814743 17.718988 9.064857 -25.461739 24.664093 -6.585706 -9.753362 12.802361 2.326514 0.000000 0.000000 0.000000 24.588854 1.607188 -24.361046 35.534389 -45.187361 15.192064 36.365432 -43.141363 -16.703919 0.000000 0.000000 0.000000 -7.125000 0.000000 0.000000 8.587452 50.223284 -1.115469 0.000000 0.000000 0.000000 -14.479842 22.721140 24.090650 -19.719088 -30.302449 -5.388914 -33.637457 -19.989271 -30.989619 0.000000 0.000000 0.000000 7.125000 0.000000 0.000000 -1.225513 -5.819981 -1.343753
-5.462004 16.290170 -28.047258 -173.098950 -27.072407 179.090689 0.000000 0.000000 0.000000 5.180820 -15.828197 -32.368804 6.571496 14.960018 47.234137 -0.145954 -18.673894 -11.794449 2.685477 -10.167076 -29.520129 0.000000 0.000000 0.000000 13.274270 8.932084 -18.660677 -10.572233 -17.716823 61.381276 -1.857554 -0.794566 -26.080043 -0.739334 -5.484000 15.296408 -0.793621 -0.621874 21.717710 -1.772295 -1.474446 0.917150 -1.038798 -0.808059 -11.219717 14.773823 12.717747 8.421040 -22.385235 16.758975 -11.111006 -9.472874 8.938235 -1.288456 0.000000 0.000000 0.000000 29.828434 -12.370026 -28.629948 45.750535 -51.126550 22.822865 33.834640 -27.843328 -14.647028 0.000000 0.000000 0.000000 -7.125000 0.000000 0.000000 6.081212 47.354673 -0.358314 0.000000 0.000000 0.000000 -8.672707 24.076492 23.824083 -19.148418 -29.602605 -5.103995 -33.941822 -20.872089 -31.750301 0.000000 0.000000 0.000000 7.125000 0.000000 0.000000 -1.224529 -6.733227 -1.360036
-4.578711 15.548993 -27.613084 -175.821294 -28.698835 179.985265 0.000000 0.000000 0.000000 7.048823 -18.822731 -39.091982 8.128110 16.212614 53.022657 -0.165152 -18.957753 -11.840076 3.246819 -11.084265 -32.564609 0.000000 0.000000 0.000000 5.665258 16.132052 -22.563285 -15.746545 -19.560351 77.475587 -1.064477 0.659195 -19.297405 -1.007433 -6.386383 17.909682 0.308983 1.827651 24.429204 -3.221898 1.148183 6.139005 -3.995579 0.117584 -6.729251 10.842341 9.394449 6.753174 -20.838725 11.325930 -13.020347 -8.647694 6.222985 -2.960637 0.000000 0.000000 0.000000 26.411818 -10.357091 -28.814877 44.986431 -50.758086 22.229308 36.861947 -28.800067 -13.514526 0.000000 0.000000 0.000000 -7.125000 0.000000 0.000000 9.076569 46.520551 -0.406251 0.000000 0.000000 0.000000 -7.631849 17.955590 28.042073 -19.564628 -30.113959 -5.311349 -36.051263 -22.159667 -30.907882 0.000000 0.000000 0.000000 7.125000 0.000000 0.000000 -2.585026 -6.506391 -2.864066
